<?xml version="1.0" encoding="UTF-8"?>
<!-- Created with Inkscape (http://www.inkscape.org/) -->
<svg width="140.29mm" height="107.8mm" version="1.1" viewBox="0 0 140.29 107.8" xmlns="http://www.w3.org/2000/svg" xmlns:xlink="http://www.w3.org/1999/xlink">
 <defs>
  <pattern id="pattern63" patternTransform="matrix(.3 0 0 .3 1052.6 38.79)" preserveAspectRatio="xMidYMid" xlink:href="#pattern59"/>
  <pattern id="pattern59" patternTransform="matrix(.3 0 0 .3 688.58 44.611)" preserveAspectRatio="xMidYMid" xlink:href="#Leaves"/>
  <pattern id="Leaves" width="172.58011" height="297.28573" fill="#dc8181" patternTransform="translate(688.58 44.611)" patternUnits="userSpaceOnUse" preserveAspectRatio="xMidYMid">
   <path d="m28.162 3.4016e-4c0.41832 0.4043 0.86797 0.78901 1.3711 1.1582 7.2268 5.3028 11.801 2.086 11.801 2.086l0.85742 1.6953s0.0076 0.76872-5.4961 4.459c-1.8037 1.2101-9.8207 6.2233-10.943 7.9082 0 0 1.7698-0.22866 6.8555-3.4238 11.647-7.3174 10.149-8.247 13.814-10.656 2.2195-1.4587 7.266-4.6471 13.633-1.2266 6.3668 3.4205 15.063 10.524 20.234 11.123 5.1716 0.59894 8.7109-0.15836 8.7109-0.15836s-3.9984-1.649-7.0469-4.5176c-1.6545-1.5566-4.691-5.1912-7.9024-8.4473h-23.918c-0.092976 0.13946-0.21694 0.32013-0.21694 0.32013l-2.5488 0.84571s0.60813-0.98801 0.71875-1.166h-2.0313c-1.2358 1.8151-2.5996 3.4824-2.5996 3.4824s-1.4461-1.5291-3.3828-3.4824zm133.2 5.2676c0.1663 0.33487-3.381 4.7304-7.9941 6.2011-4.5742 1.4584-8.5745 0.86869-14.678 5.7305-4.7217 3.7613-2.6816 7.6191-2.6816 7.6191 19.209-7.5654 19.709-9.4086 21.008-11.496 0 0-0.60968 5.7322-21.965 14.232-11.779 4.6884-10.242 16.607-10.242 16.607s1.1638-12.432 12.805-15.156c3.3385-0.78123 7.2667 5.6225 18.074-5.4297 5.3248-5.4454 6.4546-10.558 6.4238-13.988-0.0227-2.6684-0.75001-4.3203-0.75001-4.3203zm-45.641 2.9668c-0.60303-9.827e-4 -1.2312 0.030236-1.8847 0.09978-8.3652 0.88569-13.482 4.5273-13.482 4.5273s14.467 9.2517 26.08-0.09751v-2e-3s-3.5972-4.5156-10.713-4.5273zm-62.904 9.0742s-8.7014 1.7749-11.461 17.523c-1.7028 9.7176-0.66807 17.139 0.62891 21.279 2.0954 6.6894 6.0098 6.2051 6.0098 6.2051s-2.152-8.9666-2.2851-17.871c-0.09449-6.3303 1.6953-17.75 1.6953-17.75s-1.2081 11.948-0.32806 20.836c0.68141 6.8817 2.5215 16.576 2.5215 16.576s-2.67 0.17159-5.1133 2e-3c-5.6067-0.38869-8.7109-0.67582-8.7109-0.67582s-0.83958-7.1759-4.6387-12.031c-3.694-4.7209-9.0547-7.2715-9.0547-7.2715 3.1548 4.9545 3.819 9.654 5.6894 13.227 2.8134 5.3736 6.4336 6.2519 6.4336 6.2519s-15.327-1.8369-21.002 1.3985c-6.1668 3.5161-9.0215 7.8105-9.0215 7.8105s2.7887-0.80546 12.084-2.4512c5.9621-1.0556 9.4922-6.2969 9.4922-6.2969s5.5538 0.71014 9.3066 1.1035c3.7528 0.39341 10.393 0.99413 10.393 0.99413l-2.1465 1.8028s-3.4038-0.34356-7.584 1.1094c-4.1802 1.453-5.3282 4.251-6.8613 9.8867-1.5332 5.6356 2.3934 19.724 3.0508 24.549 0.65737 4.8247-0.23811 9.6953-0.23811 9.6953s2.6362-2.7862 5.0683-8.0332c2.4322-5.247 1.4532-18.267 2.2168-26.574 0.76362-8.3068 6.2719-10.83 8.7422-11.9 4.0799-1.7684 4.0051 0.27288 16.687-5.5781 5.5378-2.5548 6.7305-4.0528 6.7305-4.0528-2.0401-0.10772-10.748 3.9322-12.775 4.7852-6.1847 2.6021-6.8223 2.0703-6.8223 2.0703l-0.9219-1.9688s5.267-2.0603 4.9531-12.467c-0.17235-5.7198-3.0344-9.0994-4.1426-19.994-0.72688-7.1467 1.4043-12.189 1.4043-12.189zm19.369 7.9746s-5.2147 4.3528-4.1367 12.695c1.078 8.3425 4.8359 13.375 4.8359 13.375s3.8411-6.3211 3.7637-13.887c-0.04044-3.963-1.158-8.2667-4.4629-12.184zm41.717 2.8691s-15.203 1.6836-17.596 17.305c-4.3389 28.322-11.26 30.758-11.26 30.758 2.2085-2.1887 4.3472-3.3395 8.1504-28.791 0 0-5.3688-1.3187-8.6582 5.5019-4.2519 8.8164-2.3649 13.475-2.8457 19.434-0.4848 6.0096-4.8985 11.599-5.3613 11.498 0 0 11.781 2.0206 21.025-12.289 10.554-16.337 1.4861-19.182 1.4863-23.447 6.8e-4 -14.871 15.059-19.969 15.059-19.969zm-110.36 10.078c-1.1543 1.52e-4 -2.3413 0.08617-3.541 0.28724v8.543c1.0136 0.022677 2.0933-0.037795 3.2559-0.23622 8.2922-1.4145 13.168-5.3731 13.168-5.3731s-5.8287-3.2216-12.883-3.2207zm169.04 0.28724c-3.2388 0.54263-6.5678 1.9154-9.5937 4.6856 0 0 3.378 3.7126 9.5937 3.8574zm-17.936 8.3711c-0.60303-9.83e-4 -1.2313 0.03024-1.8848 0.09978-8.3652 0.88573-13.482 4.5273-13.482 4.5273s14.467 9.2501 26.08-0.09978c0 0-3.5972-4.5156-10.713-4.5273zm-26.404 16.879c-0.60303-9.82e-4 -1.2312 0.03024-1.8848 0.09978-8.3652 0.88577-13.482 4.5273-13.482 4.5273s14.466 9.2485 26.078-0.09978c-0.0151-0.02268-3.6121-4.5156-10.711-4.5273zm36.277 2.5957s-3.4351 15.52-18.219 17.133c-4.2399 0.46261-8.0519-8.2416-23.148 4.0215-13.223 10.741-9.9356 22.234-9.9356 22.234-0.1508-0.44916 4.9261-5.4446 10.848-6.5781 5.8716-1.1239 10.708 0.24718 19.012-4.9356 6.4237-4.0094 4.5293-9.2011 4.5293-9.2011-24.889 6.5402-25.8 8.7899-27.736 11.223 0 0 1.6713-7.1433 29.355-14.527 15.27-4.0727 15.295-19.369 15.295-19.369zm-111.77 16.588s-2.3762 11.714 11.648 21.385c16.012 11.042 19.129 2.0646 23.393 2.1934 14.865 0.44878 19.506 15.652 19.506 15.652s-1.2238-15.247-16.766-18.109c-28.178-5.1904-30.406-12.18-30.406-12.18 2.1211 2.2735 3.2058 4.4433 28.531 9.0117 0 0 1.4821-5.3249-5.2363-8.8184-8.6842-4.5156-13.398-2.7696-19.34-3.4297-5.9922-0.66569-11.445-5.2455-11.33-5.7051zm-40.025 9.2539s-12.318 11.963-5.8769 25.408c0 0 6.1415-2.9024 7.1953-11.248 0.19767-1.5648 0.27439-3.041 0.26948-4.4062-0.02268-5.9161-1.5879-9.7539-1.5879-9.7539zm140.68 15.68s-3.2583 5.9604 0.80077 13.328c4.0592 7.3678 9.4004 10.674 9.4004 10.674s0.28573-1.6523 0.27742-4.1406c-0.0189-5.4742-1.4586-14.993-10.479-19.861zm-104.62 6.1582s-4.0804 16.681 8.5195 24.65c0 0 1.6551-2.5844 1.666-6.5937 0.0076-1.958-0.38306-4.2561-1.5449-6.7598-3.541-7.6304-8.6406-11.297-8.6406-11.297zm-12.734 3.334s-4.1991 0.71819-9.6523 3.7715c-5.4533 3.0532-12.184 15.341-17.824 22.248-2.7684 3.3904-5.8209 4.7623-8.5723 5.2031v2.6973c1.3919 0.86725 3.4468 1.9662 6.0918 2.7793 4.9106 1.5096 7.6756-0.21656 12.486-4.2207 4.8107-4.0042 9.3135-19.227 11.522-23.978 2.208-4.7511 5.9492-8.5 5.9492-8.5zm102.41 2.4883c-14.893 0.68375-19.609 17.195-19.609 17.195s6.2466-0.66168 13.102-5.5371c6.4265-4.5708 6.521-10.819 6.5078-11.582h2e-3c-8.7e-4 -0.0506-2e-3 -0.0763-2e-3 -0.0763zm-52.283 0.78709s4.7164 16.512 19.609 17.195c0 0 8e-3 -0.10772 2e-3 -0.30274-0.0265-1.3652-0.51163-7.0934-6.5098-11.359-6.8549-4.8755-13.102-5.5332-13.102-5.5332zm-14.35 13.99c-3.046 0.0578-4.8144 0.96873-4.8144 0.96873s5.2013 2.7976 9.0762 9.4707c5.9069 10.173 5.3924 15.149 8.875 20.193 6.3363 9.1785 12.557 7.1426 12.557 7.1426l0.39454 2.3633s-0.25323 0.91665-7.6758 3.1484c-2.4339 0.73179-13.131 3.55-14.959 5.1172 0 0 2.0679 0.42788 8.8574-1.377 15.549-4.1334 14.178-5.838 19.107-7.2656 2.9848-0.86442 9.7272-2.6758 15.73 3.918 6.0032 6.5937 4.675 10.038 8.3164 18.01 2.5967 5.6848 8.709 2.9531 8.709 2.9531s-3.56 1.0154-5.709-5.3633c-2.149-6.3788 0.77805-31.372-14.367-26.129-4.8222 1.7715-7.7754 4.5273-7.7754 4.5273h-3.1485s5.8051-5.3144 9.0527-8.3653c3.2477-3.0508 7.9727-7.6758 7.9727-7.6758s6.6291 1.9558 12.859-1.4453c9.7132-5.3025 12.826-6.625 12.826-6.625s-5.3964-1.6304-13.385-0.19729c-7.3507 1.3183-20.469 13.975-20.469 13.975s2.8141-3.3735 2.0137-10.029c-0.53208-4.425-2.904-8.946-3.1191-15.488 0 0-3.3743 6.0699-3.8106 12.801-0.44878 6.9224 3.3399 13.701 3.3399 13.701s-2.7087 2.4901-7.6875 6.877c-2.1696 1.9116-4.7695 3.6934-4.7695 3.6934s-4.4607-9.6698-8.209-16.082c-4.8412-8.2817-13.578-17.686-13.578-17.686s8.9446 8.5313 12.889 14.045c5.548 7.756 9.2519 17.025 9.2519 17.025s3.9582-2.4149 1.6504-9.6836c-1.4284-4.499-5.1913-11.629-12.969-18.758-7.0899-6.4983-13.117-7.8343-17.033-7.7598zm66.848 6.2891c-1.0156-4e-3 -1.4063 0.0975-1.4063 0.0975 1.91 1.4666 12.743 3.7068 15.213 4.3067 7.5321 1.8293 7.834 2.7305 7.834 2.7305l-0.2657 2.3808s-6.3226-1.6975-12.156 7.8086c-3.2063 5.2248-2.4241 10.165-7.7754 20.641-3.5104 6.8718-8.5527 9.9453-8.5527 9.9453s9.4866 4.2585 21.451-7.9551c7.3828-7.5364 10.755-14.858 11.939-19.428 1.9136-7.3823-2.1699-9.582-2.1699-9.582s-3.1994 9.455-8.3222 17.498c-3.6419 5.7178-12.113 14.717-12.113 14.717s8.2166-9.8605 12.605-18.391c3.3981-6.6046 7.334-16.498 7.334-16.498s2.6916 1.6394 4.9609 3.4317c2.3231 1.8347 3.9914 3.1749 5.3301 4.2539v-2.5527c-2.1304-1.7604-5.0586-4.1934-5.0586-4.1934l3.1445-0.17008s0.72181 0.57936 1.9141 1.3223v-2.6953c-2.8539 0.45721-5.3827-0.0873-6.9238-0.44535-4.9993-1.1604-3.7214-2.9334-19.471-6.2246-3.8682-0.80829-6.2061-0.99209-7.5117-0.99802zm-104.8 9.6308c-2.5395 8e-3 -4.0762 0.32806-4.0762 0.32806s9.561 14.264 23.943 10.338c-0.0029-0.0151-1.7634-6.5657-9.7754-9.0957-4.0108-1.2664-7.5524-1.5767-10.092-1.5703zm-33.877 3.7734v2.5527c1.6621 1.3397 2.7148 2.1992 2.7148 2.1992s-2.5659 5.2418-2.7148 11.125v0.69529c0.0075591 0.67668 0.038173 1.3572 0.11717 2.0391 0.79767 6.6977 4.4922 12.578 4.4922 12.578-0.1372-6.5443 1.9878-11.186 2.2812-15.633 0.44126-6.6892-2.5508-9.9063-2.5508-9.9063s13.782 11.933 21.193 12.854c8.0539 1.001 13.354-0.91601 13.354-0.91601s-3.1777-1.1552-13.162-5.9277c-6.4041-3.0611-12.92-0.74998-12.92-0.74998s-4.9661-4.3646-8.3731-7.2364c-1.5909-1.341-2.5654-2.1316-4.4316-3.6738zm72.443 9.1406s-4.1681 15.34-19.012 16.25c-4.2571 0.26079-7.6491-8.615-23.311 2.918-13.718 10.102-10.982 21.736-10.982 21.736-0.12888-0.45581 5.1798-5.2015 11.148-6.0527 5.9182-0.84416 10.685 0.75553 19.225-4.0274 6.6068-3.7002 4.959-8.9785 4.959-8.9785-25.171 5.3518-26.187 7.5563-28.236 9.8945 0 0 2.0104-7.057 30.014-13.119 15.446-3.3436 16.195-18.621 16.195-18.621zm100.14 6.7793c-4e-3 0.18746-2e-3 0.37568 0 0.56443zm-79.891 18.766s-4.6995 0.80436-10.805 4.2226c-6.1052 3.4183-13.641 17.175-19.955 24.908-6.3141 7.7328-13.961 6.1128-17.35 5.3261-5.597-1.2991-4.1669-3.2842-21.799-6.9687-7.6989-1.6089-9.9844-1.0059-9.9844-1.0059 2.1383 1.6419 14.266 4.1468 17.031 4.8184 8.4324 2.048 8.7715 3.0586 8.7715 3.0586l-0.29896 2.664s-7.0765-1.9004-13.607 8.7422c-3.5896 5.8493-2.716 11.381-8.707 23.109-3.93 7.6933-9.5742 11.133-9.5742 11.133s10.619 4.7673 24.014-8.9062c8.2653-8.4374 12.043-16.634 13.369-21.75 2.1424-8.2648-2.4277-10.727-2.4277-10.727s-3.5811 10.585-9.3164 19.59c-4.0772 6.4014-13.564 16.477-13.564 16.477s9.2017-11.04 14.115-20.59c3.8043-7.3941 8.209-18.471 8.209-18.471s3.0121 1.8353 5.5527 3.8418c5.83 4.6044 9.0098 7.2246 9.0098 7.2246s-3.8286 7.8038-2.9102 15.516c0.89299 7.4983 5.0312 14.082 5.0312 14.082-0.15345-7.3267 2.2263-12.523 2.5547-17.502 0.49402-7.4888-2.8555-11.09-2.8555-11.09s15.428 13.358 23.725 14.389c9.0166 1.1207 14.951-1.0254 14.951-1.0254s-3.5583-1.2897-14.736-6.6328c-7.1697-3.4271-14.465-0.84181-14.465-0.84181s-5.5587-4.8846-9.373-8.0996c-3.8143-3.2151-10.625-8.8066-10.625-8.8066l3.5195-0.19125s3.4673 2.9037 8.9649 4.5938c5.4976 1.69 8.5928-0.24377 13.979-4.7266 5.3858-4.4829 10.424-21.525 12.897-26.844 2.472-5.3191 6.6602-9.5176 6.6602-9.5176zm18.572 1.6777c-0.60302-1e-3 -1.2332 0.0302-1.8867 0.0998-8.3652 0.88569-13.482 4.5273-13.482 4.5273s14.467 9.2502 26.08-0.0998c0 0-3.5953-4.5156-10.711-4.5273zm59.141 10c-0.76724-4e-3 -1.5753 0.0461-2.4277 0.16403-8.3324 1.1534-13.332 4.957-13.332 4.957s8.7504 5.1984 17.937 3.1562v-8.1172c-0.68576-0.0975-1.4105-0.15572-2.1777-0.16026zm-170.4 0.16025v8.1172c4.5279-1.0088 10.434-4.4492 10.434-4.4492s-3.2695-2.441-10.434-3.668zm116.68 13.809c-5.4244-0.0265-9.4961 2.0625-9.4961 2.0625s15.373-4.0475 23.572 8.3594c2.3515 3.5583-3.6458 10.93 14.166 18.742 15.601 6.8424 24.318-1.3379 24.318-1.3379-0.33071 0.33941-7.0951-1.8902-10.812-6.6367-3.6862-4.7065-4.6782-9.635-13.086-14.647-6.5046-3.877-10.258 0.18369-10.258 0.18369 17.204 19.138 19.623 18.919 22.672 19.527 0 0-7.118 1.7818-26.352-19.455-4.8069-5.3077-10.23-6.7784-14.725-6.7988zm-17.717 8.4258s2.0318 17.051 16.627 20.092c0 0 0.13833-0.64857 0.14664-1.7207 0.0189-2.3588-0.59648-6.7682-4.7168-10.826-5.9934-5.9026-12.057-7.5449-12.057-7.5449zm24.219 31.398c-4.4948-0.0189-9.9301 1.4085-14.781 6.6758-19.41 21.075-26.512 19.234-26.512 19.234 3.0541-0.58303 5.4703-0.3428 22.834-19.336 0 0-3.7172-4.0922-10.254-0.26948-8.4493 4.9411-9.4836 9.8616-13.209 14.537-3.757 4.7153-10.54 6.8871-10.867 6.5449 0 0 8.6447 8.2528 24.303 1.541 17.876-7.6628 11.943-15.085 14.324-18.623 8.3026-12.338 23.641-8.1621 23.641-8.1621s-4.0538-2.1218-9.4785-2.1426zm24.459 9.543s-3.1474 6.0197 1.045 13.313c4.1922 7.2929 9.5898 10.502 9.5898 10.502s0.20826-1.3437 0.2109-3.4258c8e-3 -5.3208-1.325-15.472-10.846-20.389zm-71.189 4.586s-4.7415 0.20296-10.883 3.4356c-5.6511 2.9743-13.385 16.141-13.385 16.141s1.51-3.326-0.6582-8.1875c-1.4414-3.2322-4.3963-6.0449-6.0645-10.977 0 0-1.3455 5.5331-0.16214 10.783 1.2175 5.3995 5.834 9.5527 5.834 9.5527s-1.6265 2.6255-4.6563 7.3047c-0.13455 0.20826-0.27931 0.40513-0.4199 0.61134h2.0312c0.72393-1.1652 3.0275-4.8666 4.7051-7.6406 1.9331-3.1965 4.7012-7.9883 4.7012-7.9883s5.8158-0.28422 10.084-4.5468c6.6542-6.6457 8.873-8.4883 8.873-8.4883zm-59.135 9.084c-6.0636 0.0385-9.0879 2.9258-9.0879 2.9258s4.8502 0.73988 9.5117 4.791c6.2059 5.3936 7.5414 9.0756 10.426 11.863h11.91c-2.0391-2.0566-4.6299-4.589-6.9375-6.582-5.8114-5.0192-15.031-9.8515-15.031-9.8515s9.1917 4.1092 13.645 7.2578c4.5076 3.1873 8.3459 7.1603 10.186 9.1758h1.8867c0.16328-0.49436 0.28876-1.1052 0.25776-1.8555-0.05065-1.2318-0.50294-2.7936-1.8262-4.6406-2.1841-3.0485-6.8596-7.4788-14.785-10.832-4.0138-1.6982-7.3981-2.2694-10.154-2.252zm98.568 5.8008c-2.8292 0.0189-4.5567 0.41798-4.5567 0.41798s9.8461 14.068 24.146 9.8535c0 0-1.8862-6.5276-9.957-8.8984-3.7832-1.1113-7.1366-1.3896-9.6328-1.373zm-55.689 6.6601c-1.7198 0.034-3.2616 0.58303-5.0117 1.9043-2.9305 2.2125-4.5672 4.496-5.0469 5.2148h23.918c-2.7062-2.7438-5.5341-5.2227-7.7832-5.9121-2.4591-0.75375-4.3564-1.2397-6.0762-1.207z" style="paint-order:markers fill stroke"/>
  </pattern>
 </defs>
 <g transform="translate(-373.72 126.71)">
  <g>
   <path d="m434.08-50.602-5.0478-2.2862 1.2628-1.9344c3.3794-5.1768 3.7442-9.9993 1.1766-15.557-1.91-4.1341-4.7852-7.9391-12.109-16.025-5.7339-6.3308-7.5628-8.5415-9.6499-11.665-3.9502-5.9115-4.6772-10.196-2.4815-14.625 4.8402-9.7628 29.708-12.462 46.389-13.148 4.4652-0.18372 18.866 8.3479 33.375 9.7257 14.961 1.4207 26.204-11.8 26.831-8.4899 0.42245 2.2276-15.688 32.926-31.456 45.436-15.591 12.369-24.992 10.76-31.622 4.4758s-6.4609-7.3014-7.2734-15.267c-1.2716-12.466 1.8592-28.925-2.9308-28.617-9.4734 0.60873-24.398 1.9116-26.064 7.2172-0.5547 1.7665-0.35086 7.2712 4.3169 13.633 3.7332 5.0879 11.408 10.436 15.473 20.023 5.0277 11.858 5.8174 14.239 6.3505 19.149 0.23204 2.1373 0.23036 3.3894-7e-3 5.2404-0.41316 3.2217-0.85111 5.0537-1.2011 5.0242-0.1569-0.01323-2.5568-1.0529-5.3331-2.3103z" fill="#faa" stroke="#fdfdfd" stroke-linecap="round" stroke-linejoin="round" stroke-width=".35278"/>
   <path d="m410.87-26.055c-9.362-0.88742-21.219-5.9008-29.361-12.414-3.2578-2.6062-5.4797-5.0959-6.651-7.4526-0.68364-1.3755-0.89594-2.1643-0.95669-3.5547-0.0577-1.32 0.13279-2.3104 0.66636-3.4652 2.2804-4.9356 10.031-9.0331 18.856-9.9687 1.364-0.1446 4.6631-0.14203 6.1272 0.0048 2.7983 0.28059 6.0062 0.96862 9.2289 1.9794 4.3926 1.3777 8.7878 3.175 18.273 7.472 5.6815 2.5738 9.8808 4.4528 11.209 5.0155 0.67789 0.28722 1.2746 0.5733 1.3261 0.63574 0.0514 0.06244 0.17774 0.11674 0.28064 0.12067 0.1029 0.0039 1.0079 0.344 2.0112 0.75572 5.3072 2.178 8.1864 2.9915 10.91 3.0827 1.7958 0.06012 2.547-0.06902 3.6625-0.62964 0.39483-0.19843 0.73036-0.34829 0.74563-0.33303 0.0689 0.06891-3.446 4.5506-4.3119 5.4979-1.1186 1.2238-1.7695 1.7992-2.8091 2.4833-2.8354 1.8657-6.3378 1.7432-11.085-0.38752-1.4085-0.6322-3.0993-1.5331-3.0993-1.6514 0-0.04865-0.0694-0.08845-0.15429-0.08845-0.0849 0-0.68472-0.32301-1.333-0.71781-2.2898-1.3945-3.8688-2.4622-12.077-8.1666-9.7339-6.765-15.698-10.168-20.963-11.959-6.4608-2.1985-11.086-1.4774-14.865 2.3175-1.1828 1.1879-2.0341 2.3657-2.8427 3.9331-0.93897 1.82-1.5738 3.8436-1.8401 5.8657-0.16126 1.2246-0.0636 3.9436 0.17941 4.9946 0.45109 1.951 1.2672 3.5366 2.4864 4.8309 0.90126 0.95676 1.6231 1.4841 2.7846 2.0344 1.7064 0.80833 3.3596 1.1152 5.9676 1.1077 1.9471-0.0056 3.3614-0.14867 5.4612-0.55243 7.4628-1.435 16.292-5.5192 22.834-10.563 0.71927-0.5545 1.3739-1.0495 1.4547-1.0999 0.11491-0.07176 0.76759 0.34114 2.9953 1.8949 3.3278 2.321 6.9916 4.7616 8.4844 5.6518 0.57881 0.34514 1.0513 0.65633 1.05 0.69153-4e-3 0.11546-1.497 2.1963-2.2268 3.1042-0.90701 1.1283-3.1895 3.4219-4.2254 4.2459-3.746 2.9801-7.8551 4.716-12.43 5.2512-1.2803 0.14976-4.3468 0.16726-5.7644 0.03289z" fill="#faa" stroke="#fdfdfd" stroke-linecap="round" stroke-linejoin="round" stroke-width=".35278"/>
   <path d="m444.08-83.973s-2.0736-39.467-0.51775-39.384c5.1202 0.27222 14.497 14.277 18.003 5.1452 6.7082-4.749 0.4338 6.8587-12.337-6.7447 0 0 26.926 6.7978 28.546 7.2928 4.9954 1.5262 16.295 3.9235 25.279-1.9455 11.899-7.7724 12.253-6.6487 9.231-0.73856-3.0224 5.9101-18.002 31.763-26.894 38.567-8.8914 6.8046-11.008 9.0808-20.003 11.557-0.68453 0.18844-2.9075 0.10376-3.5926 0.14904-3.9682 0.26228-7.5226-1.6547-10.155-3.731-2.8842-2.2753-7.5608-10.168-7.5608-10.168z" fill="url(#pattern63)"/>
   <g transform="translate(347.23 -3.5993)" fill="#b8a7ff" stroke="#fdfdfd" stroke-linecap="round" stroke-linejoin="round" stroke-width=".35278">
    <path d="m96.899-40.124-5.0478-2.2862 1.2628-1.9344c3.3794-5.1768 3.7442-9.9993 1.1766-15.557-1.9101-4.1341-4.7852-7.9391-12.109-16.025-5.7339-6.3308-7.5628-8.5415-9.6499-11.665-3.9502-5.9115-4.6772-10.196-2.4815-14.625 4.8402-9.7628 25.931-20.003 42.612-20.689 9.0694-0.37316 14.104 2.6299 15.34 9.1507 1.3203 6.9617-2.7966 18.579-8.6023 24.275-5.4356 5.3328-10.409 2.8922-18.897-9.2729-1.532-2.1959-1.6206-2.4015-1.2964-3.0073 0.66114-1.2354 4.8137-5.392 6.1555-6.1617 2.7928-1.6019 4.5296-0.94937 8.8526 3.3258 1.6912 1.6725 3.2408 3.0409 3.4435 3.0409 0.5425 0 0.22684-2.1493-0.63002-4.2897-2.3365-5.8364-7.1241-6.627-13.665-2.2567-5.1094 3.4136-9.1849 8.6584-10.851 13.964-0.55469 1.7665-0.61876 2.464-0.60673 6.6053 0.01117 3.8384 0.11482 5.06 0.60616 7.1438 0.83063 3.5226 2.3808 7.9793 4.5774 13.16 5.0277 11.858 5.8174 14.239 6.3505 19.149 0.23204 2.1373 0.23036 3.3894-7e-3 5.2404-0.41316 3.2217-0.85111 5.0537-1.2011 5.0242-0.15691-0.01323-2.5568-1.0529-5.3331-2.3103z"/>
    <path d="m73.692-15.576c-9.362-0.88742-21.219-5.9008-29.361-12.414-3.2578-2.6062-5.4797-5.0959-6.651-7.4526-0.68364-1.3755-0.89593-2.1643-0.95668-3.5547-0.05767-1.32 0.13278-2.3104 0.66636-3.4652 2.2804-4.9356 10.031-9.0331 18.856-9.9687 1.364-0.1446 4.6631-0.14203 6.1272 0.0048 2.7983 0.28059 6.0062 0.96862 9.2289 1.9794 4.3925 1.3777 8.7878 3.175 18.273 7.472 5.6815 2.5738 9.8808 4.4528 11.209 5.0155 0.6779 0.28722 1.2746 0.5733 1.3261 0.63574 0.0515 0.06244 0.17773 0.11674 0.28063 0.12067 0.1029 0.0039 1.0079 0.344 2.0112 0.75572 5.3072 2.178 8.1864 2.9915 10.91 3.0827 1.7958 0.06012 2.547-0.06902 3.6625-0.62964 0.39483-0.19843 0.73036-0.34829 0.74563-0.33303 0.0689 0.06891-3.446 4.5506-4.3119 5.4979-1.1186 1.2238-1.7695 1.7992-2.8091 2.4833-2.8354 1.8657-6.3378 1.7432-11.085-0.38752-1.4085-0.6322-3.0993-1.5331-3.0993-1.6514 0-0.04865-0.06943-0.08845-0.1543-0.08845-0.08486 0-0.68472-0.32301-1.333-0.71781-2.2898-1.3945-3.8688-2.4622-12.077-8.1666-9.7339-6.765-15.698-10.168-20.963-11.959-6.4608-2.1985-11.086-1.4774-14.865 2.3175-1.1829 1.1879-2.0341 2.3657-2.8427 3.9331-0.93897 1.82-1.5738 3.8436-1.8401 5.8657-0.16127 1.2246-0.0636 3.9436 0.17941 4.9946 0.45109 1.951 1.2672 3.5366 2.4864 4.8309 0.90126 0.95676 1.6231 1.4841 2.7846 2.0344 1.7064 0.80833 3.3596 1.1152 5.9675 1.1077 1.9471-0.0056 3.3614-0.14867 5.4613-0.55243 7.4628-1.435 16.292-5.5192 22.834-10.563 0.71927-0.5545 1.3739-1.0495 1.4547-1.0999 0.11491-0.07176 0.76759 0.34114 2.9953 1.8949 3.3278 2.321 6.9916 4.7616 8.4844 5.6518 0.57881 0.34514 1.0513 0.65633 1.05 0.69153-0.0043 0.11546-1.497 2.1963-2.2268 3.1042-0.907 1.1283-3.1895 3.4219-4.2254 4.2459-3.746 2.9801-7.8551 4.716-12.43 5.2512-1.2803 0.14976-4.3468 0.16726-5.7644 0.03289z"/>
   </g>
  </g>
 </g>
</svg>
